<svg width="313" height="230" viewBox="0 0 313 230" fill="none" xmlns="http://www.w3.org/2000/svg">
<path d="M237.611 35.2704L310.578 118.182C315.068 123.283 311.446 131.294 304.65 131.294H296.457C295.367 131.294 294.481 132.179 294.481 133.27V223.08C294.481 226.899 291.384 229.996 287.564 229.996L285.59 229.997C281.229 229.997 277.693 226.461 277.693 222.101V129.358C277.693 126.718 276.731 124.168 274.986 122.186L248.334 91.8981L221.674 61.6104C220.495 60.2706 218.411 60.2706 217.232 61.6104L181.126 102.629L174.595 110.054L163.92 122.186C162.176 124.168 161.213 126.718 161.213 129.358V222.101C161.213 226.461 157.679 230 153.317 230L25.9773 229.996C21.6159 229.996 18.0813 226.461 18.0813 222.101V133.27C18.0813 132.179 17.1957 131.294 16.1053 131.294H7.91212C1.11679 131.294 -2.50508 123.283 1.9841 118.182L74.9517 35.2704C76.451 33.5669 78.6103 32.5918 80.8798 32.5918H231.683C233.952 32.5918 236.112 33.5669 237.611 35.2704Z" fill="#4C9C62"/>
<path d="M151.836 131.383L16.1055 131.294C17.1958 131.294 18.0815 132.18 18.0815 133.27V141.561L151.836 168.397V131.383Z" fill="#151C18" fill-opacity="0.25"/>
<path fill-rule="evenodd" clip-rule="evenodd" d="M287.567 129.349C287.567 124.308 285.73 119.44 282.4 115.655L270.871 102.554C278.877 91.8484 283.619 78.5591 283.619 64.1624C283.619 28.7265 254.893 -1.54895e-06 219.457 0C184.021 1.54895e-06 155.294 28.7265 155.294 64.1624C155.294 78.5591 160.036 91.8484 168.042 102.554L156.513 115.655C153.183 119.44 151.346 124.308 151.346 129.349V229.998H153.217C157.635 229.998 161.217 226.416 161.217 221.998V129.349C161.217 126.709 162.179 124.159 163.924 122.176L174.602 110.042L181.134 102.619L217.233 61.5968C218.413 60.2568 220.501 60.2569 221.68 61.5968L248.335 91.8865L257.779 102.619C250.734 109.64 241.771 114.738 231.744 117.057C229.447 112.61 224.807 109.57 219.457 109.57C214.106 109.57 209.466 112.61 207.17 117.057C206.19 118.954 205.637 121.107 205.637 123.389C205.637 124.614 205.796 125.801 206.095 126.932C207.66 132.848 213.049 137.209 219.457 137.209C225.864 137.209 231.254 132.848 232.818 126.932C244.929 124.366 255.779 118.384 264.311 110.042L274.989 122.176C276.734 124.159 277.696 126.709 277.696 129.349V221.998C277.696 226.416 281.278 229.998 285.696 229.998H287.567V129.349ZM209.823 55.0757C214.933 49.2691 223.98 49.269 229.09 55.0757L264.18 94.9505C270.214 86.2015 273.748 75.5946 273.748 64.1624C273.748 34.1782 249.441 9.87114 219.457 9.87114C189.472 9.87114 165.165 34.1782 165.165 64.1624C165.165 75.5946 168.699 86.2015 174.733 94.9505L209.823 55.0757Z" fill="#151C18"/>
</svg>
