<svg width="51" height="50" viewBox="0 0 51 50" fill="none" xmlns="http://www.w3.org/2000/svg">
<rect width="50" height="50" transform="translate(0.5)" fill="#4C9C62"/>
<path d="M17.7166 23.464H19.3894V34.216H21.8994V25H24.4093V34.216H26.9187V25H29.4291V34.216H31.939V23.464H33.6114C34.0736 23.464 34.4485 23.1203 34.4485 22.696C34.4485 22.4397 34.3102 22.2141 34.0995 22.0749L34.101 22.0734L34.0885 22.0662L34.0669 22.0533L26.0821 17.9209V16.7104C27.5566 17.3881 28.7706 16.2208 30.6829 16.9225V14.2485C28.7696 13.5467 27.5562 14.7131 26.0821 14.0358V13.864C26.0821 13.6513 25.8954 13.48 25.664 13.48C25.4326 13.48 25.2464 13.6513 25.2464 13.864V17.9209L17.2616 22.0523L17.24 22.0653L17.228 22.0734V22.0749C17.0182 22.2141 16.8805 22.4401 16.8805 22.696C16.88 23.1203 17.2549 23.464 17.7166 23.464ZM18.5528 34.9845L16.88 36.52H34.449L32.7752 34.9845H18.5528Z" fill="white"/>
</svg>
