<svg width="51" height="50" viewBox="0 0 51 50" fill="none" xmlns="http://www.w3.org/2000/svg">
<rect width="50" height="50" transform="translate(0.5)" fill="#4C9C62"/>
<g clip-path="url(#clip0_13_3924)">
<path fill-rule="evenodd" clip-rule="evenodd" d="M16.686 23.462C16.4538 23.6941 16.2696 23.9698 16.1439 24.2731C16.0182 24.5765 15.9536 24.9016 15.9536 25.23C15.9536 25.5583 16.0182 25.8835 16.1439 26.1868C16.2696 26.4902 16.4538 26.7658 16.686 26.998L19.515 29.826C19.8861 30.1967 20.3643 30.4413 20.8821 30.5252C21.3998 30.6091 21.9309 30.528 22.4 30.2935C22.8692 30.0589 23.2526 29.6827 23.4962 29.2182C23.7397 28.7536 23.831 28.2243 23.757 27.705L24.73 26.732L30.808 33.746C31.0593 34.0356 31.3675 34.2704 31.7134 34.4357C32.0594 34.6011 32.4357 34.6934 32.8189 34.707C33.2021 34.7205 33.584 34.6551 33.9407 34.5146C34.2975 34.3742 34.6216 34.1618 34.8927 33.8907C35.1638 33.6195 35.3762 33.2955 35.5167 32.9387C35.6571 32.5819 35.7226 32.2 35.709 31.8168C35.6954 31.4337 35.6031 31.0574 35.4378 30.7114C35.2724 30.3655 35.0376 30.0572 34.748 29.806L27.735 23.727L28.707 22.755C29.2265 22.8292 29.7562 22.7381 30.221 22.4945C30.6858 22.251 31.0622 21.8673 31.2968 21.3979C31.5314 20.9286 31.6124 20.3972 31.5283 19.8793C31.4441 19.3613 31.1992 18.883 30.828 18.512L28 15.685C27.629 15.3137 27.1505 15.0687 26.6324 14.9845C26.1143 14.9004 25.5829 14.9815 25.1135 15.2162C24.644 15.451 24.2604 15.8276 24.0169 16.2926C23.7735 16.7576 23.6825 17.2874 23.757 17.807L18.807 22.756C18.423 22.701 18.0315 22.7362 17.6635 22.859C17.2955 22.9817 16.9611 23.1885 16.687 23.463L16.686 23.462ZM26.94 21.695L22.698 25.937L20.576 23.816L24.819 19.573L26.94 21.695ZM18.1 25.584C18.0535 25.5376 18.0166 25.4824 17.9915 25.4218C17.9663 25.3611 17.9533 25.296 17.9532 25.2303C17.9532 25.1646 17.9661 25.0996 17.9912 25.0389C18.0163 24.9781 18.0531 24.923 18.0995 24.8765C18.1459 24.83 18.2011 24.7931 18.2617 24.7679C18.3224 24.7427 18.3875 24.7297 18.4532 24.7297C18.5189 24.7297 18.5839 24.7425 18.6446 24.7676C18.7054 24.7927 18.7605 24.8296 18.807 24.876L21.636 27.705C21.6838 27.7511 21.7219 27.8063 21.7481 27.8673C21.7743 27.9283 21.7881 27.9939 21.7886 28.0603C21.7892 28.1267 21.7766 28.1925 21.7514 28.254C21.7263 28.3154 21.6892 28.3712 21.6422 28.4182C21.5953 28.4651 21.5394 28.5022 21.478 28.5274C21.4165 28.5525 21.3507 28.5652 21.2843 28.5646C21.2179 28.564 21.1523 28.5502 21.0913 28.524C21.0303 28.4978 20.9751 28.4597 20.929 28.412L18.1 25.583V25.584ZM25.878 17.805C25.8303 17.7589 25.7922 17.7037 25.766 17.6427C25.7398 17.5817 25.726 17.5161 25.7254 17.4497C25.7248 17.3833 25.7375 17.3174 25.7626 17.256C25.7877 17.1946 25.8249 17.1387 25.8718 17.0918C25.9188 17.0448 25.9746 17.0077 26.036 16.9826C26.0975 16.9574 26.1633 16.9448 26.2297 16.9454C26.2961 16.9459 26.3617 16.9597 26.4227 16.9859C26.4837 17.0121 26.5389 17.0502 26.585 17.098L29.414 19.927C29.4618 19.9731 29.4999 20.0283 29.5261 20.0893C29.5523 20.1503 29.5661 20.2159 29.5666 20.2823C29.5672 20.3487 29.5546 20.4145 29.5294 20.476C29.5043 20.5374 29.4672 20.5932 29.4202 20.6402C29.3733 20.6871 29.3174 20.7242 29.256 20.7494C29.1945 20.7745 29.1287 20.7872 29.0623 20.7866C28.9959 20.786 28.9303 20.7722 28.8693 20.746C28.8083 20.7198 28.7531 20.6817 28.707 20.634L25.878 17.805ZM32.32 32.436L26.312 25.504L26.506 25.309L33.439 31.317C33.5189 31.389 33.5832 31.4766 33.6282 31.5743C33.6731 31.672 33.6977 31.7779 33.7005 31.8854C33.7032 31.9929 33.6841 32.0999 33.6442 32.1998C33.6043 32.2996 33.5445 32.3904 33.4685 32.4664C33.3924 32.5425 33.3017 32.6023 33.2018 32.6422C33.1019 32.682 32.9949 32.7012 32.8874 32.6984C32.7799 32.6957 32.6741 32.6711 32.5763 32.6261C32.4786 32.5812 32.3911 32.5168 32.319 32.437L32.32 32.436Z" fill="white"/>
</g>
<defs>
<clipPath id="clip0_13_3924">
<rect width="24" height="24" fill="white" transform="translate(14 13)"/>
</clipPath>
</defs>
</svg>
