<svg width="51" height="50" viewBox="0 0 51 50" fill="none" xmlns="http://www.w3.org/2000/svg">
<rect width="50" height="50" transform="translate(0.5)" fill="#4C9C62"/>
<path d="M34.9531 23.8281C35.6774 23.8281 35.9797 22.8976 35.3914 22.4687L26.4406 15.9578C26.3128 15.8641 26.1585 15.8137 26 15.8137C25.8416 15.8137 25.6872 15.8641 25.5594 15.9578L16.6086 22.4687C16.0203 22.8953 16.3227 23.8281 17.0492 23.8281H18.5V32.5937H16.8125C16.7094 32.5937 16.625 32.6781 16.625 32.7812V34C16.625 34.1031 16.7094 34.1875 16.8125 34.1875H35.1875C35.2906 34.1875 35.375 34.1031 35.375 34V32.7812C35.375 32.6781 35.2906 32.5937 35.1875 32.5937H33.5V23.8281H34.9531ZM22.9297 32.5937H20.1875V23.8281H22.9297V32.5937ZM27.3594 32.5937H24.6172V23.8281H27.3594V32.5937ZM31.8125 32.5937H29.0469V23.8281H31.8125V32.5937Z" fill="white"/>
</svg>
