<svg width="51" height="50" viewBox="0 0 51 50" fill="none" xmlns="http://www.w3.org/2000/svg">
<rect width="50" height="50" transform="translate(0.5)" fill="#4C9C62"/>
<path d="M26 15.4C24.7269 15.4 23.506 15.9057 22.6059 16.8059C21.7057 17.7061 21.2 18.927 21.2 20.2C21.2 21.4731 21.7057 22.694 22.6059 23.5941C23.506 24.4943 24.7269 25 26 25C27.273 25 28.4939 24.4943 29.3941 23.5941C30.2943 22.694 30.8 21.4731 30.8 20.2C30.8 18.927 30.2943 17.7061 29.3941 16.8059C28.4939 15.9057 27.273 15.4 26 15.4ZM22.4 20.2C22.4 19.2452 22.7793 18.3296 23.4544 17.6544C24.1295 16.9793 25.0452 16.6 26 16.6C26.9548 16.6 27.8704 16.9793 28.5456 17.6544C29.2207 18.3296 29.6 19.2452 29.6 20.2C29.6 21.1548 29.2207 22.0705 28.5456 22.7456C27.8704 23.4207 26.9548 23.8 26 23.8C25.0452 23.8 24.1295 23.4207 23.4544 22.7456C22.7793 22.0705 22.4 21.1548 22.4 20.2ZM31.838 33.1564C30.5528 33.976 28.8932 34.4332 27.0836 34.5616C26.9933 34.3233 26.8534 34.1069 26.6732 33.9268L26.1452 33.3988C28.1672 33.3796 29.9372 32.944 31.1924 32.1436C32.4524 31.3396 33.2 30.172 33.2 28.6C33.2 28.2818 33.0735 27.9765 32.8485 27.7515C32.6235 27.5265 32.3182 27.4 32 27.4H24.4928C24.3429 26.9764 24.1405 26.5733 23.8904 26.2H32C32.6365 26.2 33.2469 26.4529 33.697 26.903C34.1471 27.3531 34.4 27.9635 34.4 28.6C34.4 30.6292 33.4004 32.1592 31.838 33.1564ZM19.4 33.4C20.3432 33.4 21.2144 33.088 21.9152 32.5636L24.9752 35.6236C25.0309 35.6794 25.097 35.7237 25.1698 35.7539C25.2427 35.7841 25.3207 35.7997 25.3995 35.7998C25.4784 35.7998 25.5565 35.7843 25.6293 35.7542C25.7022 35.7241 25.7684 35.6799 25.8242 35.6242C25.88 35.5685 25.9242 35.5024 25.9544 35.4296C25.9847 35.3567 26.0002 35.2787 26.0003 35.1998C26.0004 35.121 25.9849 35.0429 25.9548 34.9701C25.9247 34.8972 25.8805 34.831 25.8248 34.7752L22.7648 31.7152C23.3312 30.9578 23.6253 30.0313 23.5996 29.0858C23.5739 28.1403 23.2298 27.2312 22.623 26.5057C22.0163 25.7801 21.1824 25.2806 20.2564 25.088C19.3304 24.8954 18.3665 25.021 17.5207 25.4445C16.675 25.868 15.997 26.5645 15.5964 27.4213C15.1959 28.2781 15.0962 29.2451 15.3137 30.1656C15.5311 31.0861 16.0529 31.9062 16.7945 32.4932C17.5361 33.0802 18.4541 33.3998 19.4 33.4ZM19.4 32.2C18.6043 32.2 17.8413 31.884 17.2787 31.3213C16.716 30.7587 16.4 29.9957 16.4 29.2C16.4 28.4044 16.716 27.6413 17.2787 27.0787C17.8413 26.5161 18.6043 26.2 19.4 26.2C20.1956 26.2 20.9587 26.5161 21.5213 27.0787C22.0839 27.6413 22.4 28.4044 22.4 29.2C22.4 29.9957 22.0839 30.7587 21.5213 31.3213C20.9587 31.884 20.1956 32.2 19.4 32.2Z" fill="white"/>
</svg>
