<svg width="51" height="50" viewBox="0 0 51 50" fill="none" xmlns="http://www.w3.org/2000/svg">
<rect width="50" height="50" transform="translate(0.5)" fill="#4C9C62"/>
<path d="M20 34H26M23 34V16L17 22H35M23 16L33 22" stroke="white" stroke-width="2" stroke-linecap="round" stroke-linejoin="round"/>
<path d="M31 22V26C31.3956 26 31.7822 26.1173 32.1111 26.3371C32.44 26.5568 32.6964 26.8692 32.8478 27.2346C32.9991 27.6001 33.0387 28.0022 32.9616 28.3902C32.8844 28.7781 32.6939 29.1345 32.4142 29.4142C32.1345 29.6939 31.7781 29.8844 31.3902 29.9616C31.0022 30.0387 30.6001 29.9991 30.2346 29.8478C29.8692 29.6964 29.5568 29.44 29.3371 29.1111C29.1173 28.7822 29 28.3956 29 28" stroke="white" stroke-width="2" stroke-linecap="round" stroke-linejoin="round"/>
</svg>
