<svg width="51" height="50" viewBox="0 0 51 50" fill="none" xmlns="http://www.w3.org/2000/svg">
<rect width="50" height="50" transform="translate(0.5)" fill="#4C9C62"/>
<path d="M30.719 32.752L30.079 27.628C29.9883 26.9022 29.6355 26.2346 29.0871 25.7506C28.5387 25.2667 27.8324 24.9997 27.101 25H24.897C24.1659 25.0002 23.46 25.2674 22.912 25.7513C22.364 26.2352 22.0116 26.9026 21.921 27.628L21.28 32.752C21.2448 33.0335 21.2699 33.3193 21.3536 33.5903C21.4374 33.8614 21.5778 34.1116 21.7657 34.3242C21.9535 34.5368 22.1844 34.707 22.4431 34.8235C22.7018 34.94 22.9823 35.0002 23.266 35H28.734C29.0176 35.0001 29.298 34.9398 29.5565 34.8232C29.8151 34.7066 30.0459 34.5364 30.2336 34.3238C30.4213 34.1112 30.5617 33.8611 30.6454 33.5901C30.729 33.3191 30.7541 33.0334 30.719 32.752V32.752Z" stroke="white" stroke-width="2" stroke-linecap="round" stroke-linejoin="round"/>
<path d="M26 21C27.6569 21 29 19.6569 29 18C29 16.3431 27.6569 15 26 15C24.3431 15 23 16.3431 23 18C23 19.6569 24.3431 21 26 21Z" stroke="white" stroke-width="2"/>
<path d="M18 24C19.1046 24 20 23.1046 20 22C20 20.8954 19.1046 20 18 20C16.8954 20 16 20.8954 16 22C16 23.1046 16.8954 24 18 24Z" stroke="white" stroke-width="2"/>
<path d="M34 24C35.1046 24 36 23.1046 36 22C36 20.8954 35.1046 20 34 20C32.8954 20 32 20.8954 32 22C32 23.1046 32.8954 24 34 24Z" stroke="white" stroke-width="2"/>
<path d="M18 27H17.694C17.2205 26.9999 16.7624 27.1678 16.4011 27.4738C16.0399 27.7798 15.7988 28.204 15.721 28.671L15.388 30.671C15.3402 30.9575 15.3554 31.2511 15.4325 31.5311C15.5097 31.8112 15.6469 32.0711 15.8347 32.2928C16.0225 32.5144 16.2563 32.6925 16.5199 32.8146C16.7834 32.9368 17.0705 33 17.361 33H21M34 27H34.306C34.7794 26.9999 35.2375 27.1678 35.5988 27.4738C35.9601 27.7798 36.2011 28.204 36.279 28.671L36.612 30.671C36.6598 30.9575 36.6445 31.2511 36.5674 31.5311C36.4902 31.8112 36.353 32.0711 36.1652 32.2928C35.9775 32.5144 35.7437 32.6925 35.4801 32.8146C35.2165 32.9368 34.9295 33 34.639 33H31" stroke="white" stroke-width="2" stroke-linecap="round" stroke-linejoin="round"/>
</svg>
