<svg width="51" height="50" viewBox="0 0 51 50" fill="none" xmlns="http://www.w3.org/2000/svg">
<rect width="50" height="50" transform="translate(0.5)" fill="#4C9C62"/>
<path d="M22.368 17.79L19.632 16.877C19.3313 16.7768 19.0112 16.7496 18.6979 16.7975C18.3846 16.8453 18.0872 16.9669 17.8302 17.1523C17.5731 17.3377 17.3638 17.5814 17.2195 17.8636C17.0752 18.1457 16.9999 18.4581 17 18.775V30.558C16.9999 30.9779 17.132 31.3872 17.3775 31.7279C17.6231 32.0686 17.9696 32.3233 18.368 32.456L22.368 33.789C22.7783 33.9256 23.2217 33.9256 23.632 33.789L28.368 32.211C28.7783 32.0743 29.2217 32.0743 29.632 32.211L32.368 33.123C32.6687 33.2232 32.989 33.2504 33.3023 33.2025C33.6157 33.1546 33.9132 33.0329 34.1702 32.8474C34.4273 32.6619 34.6366 32.418 34.7808 32.1357C34.9251 31.8535 35.0002 31.541 35 31.224V19.442C35.0002 19.0222 34.8682 18.613 34.6229 18.2723C34.3775 17.9317 34.0312 17.6769 33.633 17.544L29.633 16.211C29.2224 16.0741 28.7786 16.0741 28.368 16.211L23.631 17.789C23.2207 17.9256 22.7773 17.9256 22.367 17.789L22.368 17.79Z" stroke="white" stroke-width="2" stroke-linecap="round" stroke-linejoin="round"/>
<path d="M23 18V34M29 16V32" stroke="white" stroke-width="2" stroke-linejoin="round"/>
</svg>
