<svg width="51" height="50" viewBox="0 0 51 50" fill="none" xmlns="http://www.w3.org/2000/svg">
<rect width="50" height="50" transform="translate(0.5)" fill="#4C9C62"/>
<path d="M33.275 19.975L28.025 14.725C27.875 14.575 27.725 14.5 27.5 14.5H20C19.175 14.5 18.5 15.175 18.5 16V34C18.5 34.825 19.175 35.5 20 35.5H32C32.825 35.5 33.5 34.825 33.5 34V20.5C33.5 20.275 33.425 20.125 33.275 19.975ZM27.5 16.3L31.7 20.5H27.5V16.3ZM32 34H20V16H26V20.5C26 21.325 26.675 22 27.5 22H32V34Z" fill="white"/>
<path d="M21.5 29.5H30.5V31H21.5V29.5ZM21.5 25H30.5V26.5H21.5V25Z" fill="white"/>
</svg>
