<svg width="51" height="50" viewBox="0 0 51 50" fill="none" xmlns="http://www.w3.org/2000/svg">
<rect width="50" height="50" transform="translate(0.5)" fill="#4C9C62"/>
<path d="M35.945 23.5L33.5 17.5H35V16H27.5V14.5H26V16H18.5V17.5H20L17.57 23.5H17V25H17.225C17.459 25.747 17.9345 26.395 18.575 26.845C19.2075 27.3036 19.9687 27.5506 20.75 27.5506C21.5313 27.5506 22.2925 27.3036 22.925 26.845C23.566 26.3923 24.0446 25.7454 24.29 25H24.5V23.5H23.825L21.32 17.5H26V29.5H23L22.415 29.77L19.415 33.535L20 34.75H33.5L34.085 33.535L31.085 29.77L30.5 29.5H27.5V17.5H32.195L29.69 23.5H29V25H29.225C29.4703 25.7432 29.9438 26.39 30.578 26.8485C31.2122 27.3071 31.9749 27.5539 32.7575 27.5539C33.5401 27.5539 34.3028 27.3071 34.937 26.8485C35.5712 26.39 36.0447 25.7432 36.29 25H36.5V23.5H35.945ZM21.83 25.765C21.4992 25.9481 21.1281 26.046 20.75 26.05C20.3764 26.048 20.0096 25.9499 19.685 25.765C19.354 25.5835 19.0751 25.3201 18.875 25H22.625C22.4266 25.3162 22.1536 25.5789 21.83 25.765ZM22.205 23.5H19.205L20.705 19.9L22.205 23.5ZM30.14 31L32 33.25H21.5L23.36 31H30.14ZM32.81 19.93L34.31 23.53H31.31L32.81 19.93ZM33.83 25.795C33.502 25.9851 33.129 26.0835 32.75 26.08C32.3755 26.0853 32.0068 25.9867 31.685 25.795C31.3535 25.601 31.0752 25.3278 30.875 25H34.625C34.4391 25.3337 34.1637 25.6091 33.83 25.795Z" fill="white"/>
</svg>
