<svg width="51" height="50" viewBox="0 0 51 50" fill="none" xmlns="http://www.w3.org/2000/svg">
<rect width="50" height="50" transform="translate(0.5)" fill="#4C9C62"/>
<path d="M29.5 15H21.5C18 15 16.5 17 16.5 20V30C16.5 33 18 35 21.5 35H29.5C33 35 34.5 33 34.5 30V20C34.5 17 33 15 29.5 15ZM21.5 25.25H25.5C25.91 25.25 26.25 25.59 26.25 26C26.25 26.41 25.91 26.75 25.5 26.75H21.5C21.09 26.75 20.75 26.41 20.75 26C20.75 25.59 21.09 25.25 21.5 25.25ZM29.5 30.75H21.5C21.09 30.75 20.75 30.41 20.75 30C20.75 29.59 21.09 29.25 21.5 29.25H29.5C29.91 29.25 30.25 29.59 30.25 30C30.25 30.41 29.91 30.75 29.5 30.75ZM32 22.25H30C28.48 22.25 27.25 21.02 27.25 19.5V17.5C27.25 17.09 27.59 16.75 28 16.75C28.41 16.75 28.75 17.09 28.75 17.5V19.5C28.75 20.19 29.31 20.75 30 20.75H32C32.41 20.75 32.75 21.09 32.75 21.5C32.75 21.91 32.41 22.25 32 22.25Z" fill="white"/>
</svg>
