<svg width="50" height="50" viewBox="0 0 50 50" fill="none" xmlns="http://www.w3.org/2000/svg">
<rect width="50" height="50" fill="#4C9C62"/>
<g clip-path="url(#clip0_23_128)">
<path d="M30.2191 32.752L29.5791 27.628C29.4884 26.9022 29.1357 26.2346 28.5873 25.7506C28.0388 25.2667 27.3325 24.9997 26.6011 25H24.3971C23.666 25.0002 22.9602 25.2674 22.4122 25.7513C21.8642 26.2352 21.5117 26.9026 21.4211 27.628L20.7801 32.752C20.7449 33.0335 20.77 33.3193 20.8538 33.5903C20.9375 33.8614 21.078 34.1116 21.2658 34.3242C21.4536 34.5368 21.6845 34.707 21.9432 34.8235C22.2019 34.94 22.4824 35.0002 22.7661 35H28.2341C28.5177 35.0001 28.7981 34.9398 29.0566 34.8232C29.3152 34.7066 29.546 34.5364 29.7337 34.3238C29.9214 34.1112 30.0618 33.8611 30.1455 33.5901C30.2292 33.3191 30.2543 33.0334 30.2191 32.752V32.752Z" stroke="white" stroke-width="2" stroke-linecap="round" stroke-linejoin="round"/>
<path d="M25.5 21C27.1569 21 28.5 19.6569 28.5 18C28.5 16.3431 27.1569 15 25.5 15C23.8431 15 22.5 16.3431 22.5 18C22.5 19.6569 23.8431 21 25.5 21Z" stroke="white" stroke-width="2"/>
<path d="M17.5 24C18.6046 24 19.5 23.1046 19.5 22C19.5 20.8954 18.6046 20 17.5 20C16.3954 20 15.5 20.8954 15.5 22C15.5 23.1046 16.3954 24 17.5 24Z" stroke="white" stroke-width="2"/>
<path d="M33.5 24C34.6046 24 35.5 23.1046 35.5 22C35.5 20.8954 34.6046 20 33.5 20C32.3954 20 31.5 20.8954 31.5 22C31.5 23.1046 32.3954 24 33.5 24Z" stroke="white" stroke-width="2"/>
<path d="M17.5001 27H17.1941C16.7206 26.9999 16.2625 27.1678 15.9013 27.4738C15.54 27.7798 15.299 28.204 15.2211 28.671L14.8881 30.671C14.8403 30.9575 14.8555 31.2511 14.9327 31.5311C15.0098 31.8112 15.147 32.0711 15.3348 32.2928C15.5226 32.5144 15.7564 32.6925 16.02 32.8146C16.2836 32.9368 16.5706 33 16.8611 33H20.5001M33.5001 27H33.8061C34.2795 26.9999 34.7376 27.1678 35.0989 27.4738C35.4602 27.7798 35.7012 28.204 35.7791 28.671L36.1121 30.671C36.1599 30.9575 36.1447 31.2511 36.0675 31.5311C35.9904 31.8112 35.8531 32.0711 35.6654 32.2928C35.4776 32.5144 35.2438 32.6925 34.9802 32.8146C34.7166 32.9368 34.4296 33 34.1391 33H30.5001" stroke="white" stroke-width="2" stroke-linecap="round" stroke-linejoin="round"/>
</g>
<defs>
<clipPath id="clip0_23_128">
<rect width="24" height="24" fill="white" transform="translate(13.5 13)"/>
</clipPath>
</defs>
</svg>
