<svg width="50" height="50" viewBox="0 0 50 50" fill="none" xmlns="http://www.w3.org/2000/svg">
<rect width="50" height="50" fill="#4C9C62"/>
<path d="M34.4533 23.8281C35.1775 23.8281 35.4798 22.8976 34.8916 22.4687L25.9408 15.9578C25.8129 15.8641 25.6586 15.8137 25.5001 15.8137C25.3417 15.8137 25.1873 15.8641 25.0595 15.9578L16.1087 22.4687C15.5205 22.8953 15.8228 23.8281 16.5494 23.8281H18.0001V32.5937H16.3126C16.2095 32.5937 16.1251 32.6781 16.1251 32.7812V34C16.1251 34.1031 16.2095 34.1875 16.3126 34.1875H34.6876C34.7908 34.1875 34.8751 34.1031 34.8751 34V32.7812C34.8751 32.6781 34.7908 32.5937 34.6876 32.5937H33.0001V23.8281H34.4533ZM22.4298 32.5937H19.6876V23.8281H22.4298V32.5937ZM26.8595 32.5937H24.1173V23.8281H26.8595V32.5937ZM31.3126 32.5937H28.547V23.8281H31.3126V32.5937Z" fill="white"/>
</svg>
