<svg width="51" height="50" viewBox="0 0 51 50" fill="none" xmlns="http://www.w3.org/2000/svg">
<rect width="50" height="50" transform="translate(0.5)" fill="#4C9C62"/>
<path d="M20.7499 21C20.551 21 20.3602 21.079 20.2196 21.2197C20.0789 21.3603 19.9999 21.5511 19.9999 21.75V25.25C19.9999 25.664 20.3359 26 20.7499 26H31.2499C31.4488 26 31.6396 25.921 31.7802 25.7803C31.9209 25.6397 31.9999 25.4489 31.9999 25.25V21.75C31.9999 21.5511 31.9209 21.3603 31.7802 21.2197C31.6396 21.079 31.4488 21 31.2499 21H20.7499ZM21.4999 24.5V22.5H30.4999V24.5H21.4999ZM27.7499 27C27.551 27 27.3602 27.079 27.2196 27.2197C27.0789 27.3603 26.9999 27.5511 26.9999 27.75V30.25C26.9999 30.664 27.3359 31 27.7499 31H31.2499C31.4488 31 31.6396 30.921 31.7802 30.7803C31.9209 30.6397 31.9999 30.4489 31.9999 30.25V27.75C31.9999 27.5511 31.9209 27.3603 31.7802 27.2197C31.6396 27.079 31.4488 27 31.2499 27H27.7499ZM28.4999 29.5V28.5H30.4999V29.5H28.4999ZM17.9999 16C17.5597 16 17.1317 16.1453 16.7824 16.4133C16.4332 16.6813 16.1821 17.0571 16.0682 17.4824C15.9542 17.9076 15.9838 18.3586 16.1522 18.7653C16.3207 19.1721 16.6187 19.5119 16.9999 19.732V33.25C16.9999 33.664 17.3359 34 17.7499 34H34.2499C34.4488 34 34.6396 33.921 34.7802 33.7803C34.9209 33.6397 34.9999 33.4489 34.9999 33.25V19.732C35.3812 19.5119 35.6791 19.1721 35.8476 18.7653C36.0161 18.3586 36.0456 17.9076 35.9317 17.4824C35.8177 17.0571 35.5666 16.6813 35.2174 16.4133C34.8681 16.1453 34.4402 16 33.9999 16H17.9999ZM33.4999 20V32.5H25.4999V27.75C25.4999 27.5511 25.4209 27.3603 25.2802 27.2197C25.1396 27.079 24.9488 27 24.7499 27H20.7499C20.551 27 20.3602 27.079 20.2196 27.2197C20.0789 27.3603 19.9999 27.5511 19.9999 27.75V32.5H18.4999V20H33.4999ZM17.4999 18C17.4999 17.8674 17.5526 17.7402 17.6464 17.6464C17.7401 17.5527 17.8673 17.5 17.9999 17.5H33.9999C34.1325 17.5 34.2597 17.5527 34.3535 17.6464C34.4472 17.7402 34.4999 17.8674 34.4999 18C34.4999 18.1326 34.4472 18.2598 34.3535 18.3536C34.2597 18.4473 34.1325 18.5 33.9999 18.5H17.9999C17.8673 18.5 17.7401 18.4473 17.6464 18.3536C17.5526 18.2598 17.4999 18.1326 17.4999 18ZM23.9999 32.5H21.4999V28.5H23.9999V32.5Z" fill="white"/>
</svg>
