<svg width="51" height="50" viewBox="0 0 51 50" fill="none" xmlns="http://www.w3.org/2000/svg">
<rect width="50" height="50" transform="translate(0.5)" fill="#4C9C62"/>
<path d="M25.9023 18.9809C25.309 18.9809 24.729 19.1568 24.2356 19.4865C23.7423 19.8161 23.3578 20.2847 23.1307 20.8328C22.9036 21.381 22.8442 21.9842 22.96 22.5662C23.0757 23.1481 23.3615 23.6827 23.781 24.1022C24.2006 24.5218 24.7351 24.8075 25.3171 24.9233C25.899 25.039 26.5022 24.9796 27.0504 24.7525C27.5986 24.5255 28.0671 24.141 28.3968 23.6476C28.7264 23.1543 28.9023 22.5742 28.9023 21.9809C28.9014 21.1855 28.5851 20.423 28.0227 19.8606C27.4603 19.2982 26.6977 18.9818 25.9023 18.9809ZM25.9023 23.4809C25.6057 23.4809 25.3157 23.3929 25.069 23.2281C24.8223 23.0633 24.6301 22.829 24.5165 22.5549C24.403 22.2808 24.3733 21.9792 24.4312 21.6883C24.489 21.3973 24.6319 21.13 24.8417 20.9202C25.0515 20.7105 25.3187 20.5676 25.6097 20.5097C25.9007 20.4518 26.2023 20.4815 26.4764 20.5951C26.7505 20.7086 26.9847 20.9009 27.1495 21.1475C27.3144 21.3942 27.4023 21.6842 27.4023 21.9809C27.4019 22.3786 27.2437 22.7598 26.9625 23.041C26.6813 23.3223 26.3 23.4804 25.9023 23.4809Z" fill="white"/>
<path d="M31.6676 16.2116C30.2423 14.7867 28.3396 13.9402 26.3269 13.8355C24.3141 13.7309 22.3339 14.3755 20.7685 15.645C19.2031 16.9145 18.1634 18.7189 17.8501 20.7099C17.5368 22.7009 17.9721 24.7373 19.072 26.4262L24.7395 35.1268C24.8657 35.3204 25.0381 35.4795 25.2412 35.5896C25.4444 35.6997 25.6718 35.7574 25.9029 35.7574C26.1339 35.7574 26.3613 35.6997 26.5645 35.5896C26.7676 35.4795 26.9401 35.3204 27.0662 35.1268L32.7339 26.4262C33.7545 24.8595 34.2055 22.9896 34.0114 21.1299C33.8172 19.2702 32.9898 17.5338 31.6676 16.2116ZM31.4771 25.6075L25.9029 34.1645L20.3286 25.6075C18.6224 22.9881 18.9884 19.4828 21.1988 17.2723C21.8165 16.6545 22.5499 16.1645 23.357 15.8302C24.1642 15.4958 25.0292 15.3237 25.9029 15.3237C26.7765 15.3237 27.6416 15.4958 28.4487 15.8302C29.2559 16.1645 29.9892 16.6545 30.607 17.2723C32.8174 19.4828 33.1833 22.9881 31.4771 25.6075Z" fill="white"/>
</svg>
