<svg width="22" height="21" viewBox="0 0 22 21" fill="none" xmlns="http://www.w3.org/2000/svg">
<path d="M17.5595 6.99038L10.9997 13.3849L4.43978 6.99038C4.32258 6.8759 4.16524 6.81181 4.00141 6.81181C3.83757 6.81181 3.68024 6.8759 3.56303 6.99038C3.50628 7.04598 3.4612 7.11235 3.43042 7.18559C3.39964 7.25884 3.38379 7.33749 3.38379 7.41694C3.38379 7.49639 3.39964 7.57504 3.43042 7.64828C3.4612 7.72153 3.50628 7.7879 3.56303 7.8435L10.5416 14.6475C10.6642 14.767 10.8285 14.8338 10.9997 14.8338C11.1708 14.8338 11.3352 14.767 11.4577 14.6475L18.4363 7.84481C18.4935 7.78917 18.5389 7.72264 18.5699 7.64915C18.6009 7.57566 18.6169 7.4967 18.6169 7.41694C18.6169 7.33717 18.6009 7.25821 18.5699 7.18473C18.5389 7.11124 18.4935 7.04471 18.4363 6.98906C18.3191 6.87458 18.1618 6.81049 17.9979 6.81049C17.8341 6.81049 17.6768 6.87458 17.5595 6.98906V6.99038Z" fill="#212326"/>
</svg>
