<svg width="38" height="39" viewBox="0 0 38 39" fill="none" xmlns="http://www.w3.org/2000/svg">
<g clip-path="url(#clip0_13_3542)">
<path fill-rule="evenodd" clip-rule="evenodd" d="M23.75 33.3145C23.75 34.5743 23.2496 35.7825 22.3588 36.6733C21.468 37.5641 20.2598 38.0645 19 38.0645C17.7402 38.0645 16.532 37.5641 15.6412 36.6733C14.7504 35.7825 14.25 34.5743 14.25 33.3145C14.25 32.0547 14.7504 30.8466 15.6412 29.9558C16.532 29.065 17.7402 28.5645 19 28.5645C20.2598 28.5645 21.468 29.065 22.3588 29.9558C23.2496 30.8466 23.75 32.0547 23.75 33.3145ZM27.9775 12.3171C27.6435 11.9836 27.1908 11.7962 26.7187 11.7962C26.2467 11.7962 25.794 11.9836 25.46 12.3171L20.7812 16.9959V1.84576C20.7812 1.37335 20.5936 0.920279 20.2595 0.58623C19.9255 0.252181 19.4724 0.0645142 19 0.0645142C18.5276 0.0645142 18.0745 0.252181 17.7405 0.58623C17.4064 0.920279 17.2187 1.37335 17.2187 1.84576V16.9959L12.54 12.3171C12.2023 12.0025 11.7557 11.8312 11.2943 11.8393C10.8328 11.8475 10.3925 12.0344 10.0661 12.3608C9.73979 12.6871 9.55285 13.1274 9.54471 13.5889C9.53657 14.0504 9.70786 14.497 10.0225 14.8346L17.7412 22.5534L19 23.8145L20.2587 22.5558L27.9775 14.837C28.143 14.6716 28.2743 14.4752 28.3639 14.259C28.4535 14.0428 28.4996 13.8111 28.4996 13.5771C28.4996 13.3431 28.4535 13.1113 28.3639 12.8952C28.2743 12.679 28.143 12.4826 27.9775 12.3171Z" fill="white"/>
</g>
<defs>
<clipPath id="clip0_13_3542">
<rect width="38" height="38" fill="white" transform="translate(0 0.0645142)"/>
</clipPath>
</defs>
</svg>
