<svg width="69" height="51" viewBox="0 0 69 51" fill="none" xmlns="http://www.w3.org/2000/svg">
<g clip-path="url(#clip0_11_976)">
<path d="M52.1205 7.74413L68.126 25.9486C69.1109 27.0686 68.3164 28.8276 66.8257 28.8276H65.0286C64.7895 28.8276 64.5951 29.0219 64.5951 29.2614V48.9806C64.5951 49.8191 63.9158 50.4991 63.0779 50.4991L62.6449 50.4993C61.6883 50.4993 60.9126 49.723 60.9126 48.7657V28.4025C60.9126 27.8229 60.7016 27.263 60.3188 26.8278L54.4727 20.1776L48.6247 13.5275C48.3661 13.2333 47.909 13.2333 47.6504 13.5275L39.7304 22.5337L38.2978 24.164L35.9562 26.8278C35.5737 27.263 35.3625 27.8229 35.3625 28.4025V48.7657C35.3625 49.723 34.5873 50.5 33.6305 50.5L5.69818 50.4991C4.7415 50.4991 3.96618 49.723 3.96618 48.7657V29.2614C3.96618 29.0219 3.77192 28.8276 3.53274 28.8276H1.73554C0.244971 28.8276 -0.549495 27.0686 0.435217 25.9486L16.4408 7.74413C16.7697 7.3701 17.2434 7.15601 17.7412 7.15601H50.8202C51.3179 7.15601 51.7917 7.3701 52.1205 7.74413Z" fill="#4C9C62"/>
<path d="M33.3056 28.8472L3.53278 28.8276C3.77194 28.8276 3.96622 29.0222 3.96622 29.2615V31.0819L33.3056 36.9742V28.8472Z" fill="white" fill-opacity="0.44"/>
<path fill-rule="evenodd" clip-rule="evenodd" d="M63.0785 28.4005C63.0785 27.2937 62.6756 26.2249 61.9451 25.3938L59.4162 22.5173C61.1724 20.1667 62.2125 17.2488 62.2125 14.0878C62.2125 6.30734 55.9114 -3.40095e-07 48.1384 0C40.3655 3.40095e-07 34.0641 6.30734 34.0641 14.0878C34.0641 17.2488 35.1043 20.1667 36.8604 22.5173L34.3315 25.3938C33.6011 26.2249 33.1981 27.2937 33.1981 28.4005V50.4995H33.6085C34.5776 50.4995 35.3633 49.7131 35.3633 48.743V28.4005C35.3633 27.8209 35.5744 27.261 35.9571 26.8256L38.2994 24.1614L39.7322 22.5316L47.6506 13.5245C47.9094 13.2303 48.3674 13.2303 48.6261 13.5245L54.4729 20.1751L56.5445 22.5316C54.9991 24.0731 53.0331 25.1925 50.8336 25.7016C50.3298 24.7252 49.312 24.0578 48.1384 24.0578C46.9647 24.0578 45.9469 24.7252 45.4433 25.7016C45.2283 26.1182 45.107 26.5909 45.107 27.0919C45.107 27.3609 45.1419 27.6215 45.2075 27.8698C45.5507 29.1688 46.7328 30.1263 48.1384 30.1263C49.5438 30.1263 50.7261 29.1688 51.0692 27.8698C53.7258 27.3064 56.1058 25.993 57.9773 24.1614L60.3195 26.8256C60.7023 27.261 60.9133 27.8209 60.9133 28.4005V48.743C60.9133 49.7131 61.699 50.4995 62.6681 50.4995H63.0785V28.4005ZM46.0252 12.0927C47.1461 10.8178 49.1306 10.8178 50.2515 12.0927L57.9485 20.8478C59.2721 18.9268 60.0473 16.5979 60.0473 14.0878C60.0473 7.50434 54.7155 2.16736 48.1384 2.16736C41.5612 2.16736 36.2294 7.50434 36.2294 14.0878C36.2294 16.5979 37.0045 18.9268 38.3281 20.8478L46.0252 12.0927Z" fill="white"/>
</g>
<defs>
<clipPath id="clip0_11_976">
<rect width="68.6573" height="50.5" fill="white"/>
</clipPath>
</defs>
</svg>
