<?xml version="1.0" standalone="no"?>
<!DOCTYPE svg PUBLIC "-//W3C//DTD SVG 20010904//EN"
 "http://www.w3.org/TR/2001/REC-SVG-20010904/DTD/svg10.dtd">
<svg version="1.0" xmlns="http://www.w3.org/2000/svg"
 width="1200.000000pt" height="1200.000000pt" viewBox="0 0 1200.000000 1200.000000"
 preserveAspectRatio="xMidYMid meet">

<g transform="translate(0.000000,1200.000000) scale(0.100000,-0.100000)"
fill="#000000" stroke="none">
<path d="M5933 10621 c-17 -11 -1300 -1035 -2851 -2275 -2148 -1719 -2823
-2264 -2833 -2288 -28 -69 -3 -145 61 -179 33 -18 66 -19 542 -19 l508 0 0
-2197 c0 -2176 0 -2198 20 -2231 11 -18 34 -41 52 -52 33 -20 55 -20 2033 -20
1884 0 2002 1 2034 18 19 9 44 30 55 45 l21 28 3 1830 2 1829 985 0 985 0 2
-1835 3 -1835 38 -37 37 -38 1453 -3 c1435 -2 1452 -2 1485 18 18 11 41 34 52
52 20 33 20 55 20 2231 l0 2197 508 0 c476 0 509 1 542 19 66 35 92 120 57
186 -9 18 -462 402 -1120 950 l-1106 920 -3 830 c-3 777 -4 832 -21 863 -10
18 -32 42 -50 52 -31 19 -55 20 -630 20 -655 0 -644 1 -684 -58 -16 -24 -19
-58 -23 -285 l-5 -258 -990 742 c-544 408 -1010 755 -1034 771 -53 33 -102 36
-148 9z"/>
</g>
</svg>
