<svg xmlns="http://www.w3.org/2000/svg" viewBox="0 0 553.3 129.13"><defs><style>.a{fill:#fff;}.b{fill:#4c9c62;}.b,.d{fill-rule:evenodd;}.c,.d,.e{fill:#151c18;}.c{opacity:0.25;}</style></defs><rect class="a" width="553.3" height="129.13"/><path class="b" d="M454.14,356.17l39.65,45.06a4.29,4.29,0,0,1-3.22,7.13h-4.45a1.08,1.08,0,0,0-1.08,1.07v48.81a3.75,3.75,0,0,1-3.75,3.76h-1.08a4.29,4.29,0,0,1-4.29-4.29V407.3a5.86,5.86,0,0,0-1.47-3.89L460,386.94l-14.48-16.46a1.63,1.63,0,0,0-2.42,0l-19.62,22.3-3.55,4-5.8,6.6a5.86,5.86,0,0,0-1.47,3.89v50.41a4.29,4.29,0,0,1-4.3,4.29h-69.2a4.29,4.29,0,0,1-4.29-4.29V409.43a1.07,1.07,0,0,0-1.08-1.07H329.3a4.29,4.29,0,0,1-3.22-7.13l39.65-45.06a4.3,4.3,0,0,1,3.23-1.46h82A4.3,4.3,0,0,1,454.14,356.17Z" transform="translate(-323.3 -335)"/><path class="c" d="M407.52,408.4l-73.77,0a1.08,1.08,0,0,1,1.08,1.07v4.51l72.69,14.58Z" transform="translate(-323.3 -335)"/><path class="d" d="M439,366.93a7,7,0,0,1,10.47,0l19.08,21.67a29.51,29.51,0,1,0-48.62,0Zm42.26,40.37a11.25,11.25,0,0,0-2.81-7.44l-6.27-7.12a34.87,34.87,0,1,0-55.88,0l-6.27,7.12a11.25,11.25,0,0,0-2.81,7.44V462a5.37,5.37,0,0,0,5.37-5.37V407.3a5.89,5.89,0,0,1,1.47-3.9l5.8-6.59,3.55-4,19.62-22.29a1.61,1.61,0,0,1,2.42,0L460,386.94l5.14,5.83A29.42,29.42,0,0,1,451,400.62a7.51,7.51,0,0,0-14.19,3.44A7.12,7.12,0,0,0,437,406a7.51,7.51,0,0,0,14.52,0,34.82,34.82,0,0,0,17.12-9.17l5.8,6.59a5.89,5.89,0,0,1,1.47,3.9v49.33a5.36,5.36,0,0,0,5.37,5.37Z" transform="translate(-323.3 -335)"/><path class="e" d="M556.21,390.38c-1.47,3.41-3.17,7.54-5.1,12.42s-3.81,10.17-5.86,15.88h21.93q-3.07-8.56-6-16C559.29,397.76,557.62,393.66,556.21,390.38Zm19.63,53.81q-1.35-3.94-2.79-7.79t-2.79-7.9H542.17q-1.35,4-2.79,8l-2.7,7.7h-12.6q3.75-10.68,7.12-19.73t6.54-17.13q3.27-8.08,6.45-15.41t6.54-14.43h11.45q3.36,7.13,6.54,14.43t6.35,15.41q3.27,8.09,6.64,17.13t7.21,19.73Z" transform="translate(-323.3 -335)"/><path class="e" d="M652.9,410.79a40.78,40.78,0,0,1-2.6,15.11,30.94,30.94,0,0,1-6.93,11,28.32,28.32,0,0,1-10.2,6.54,35,35,0,0,1-12.5,2.22,35.77,35.77,0,0,1-12.6-2.22,29.33,29.33,0,0,1-10.3-6.54,32.84,32.84,0,0,1-6.92-11,40.58,40.58,0,0,1-2.6-15.11,39.78,39.78,0,0,1,2.6-15,31.89,31.89,0,0,1,7-11,29.73,29.73,0,0,1,10.39-6.64,35.95,35.95,0,0,1,24.82,0,27.94,27.94,0,0,1,10.2,6.64,31.89,31.89,0,0,1,7,11A40,40,0,0,1,652.9,410.79Zm-52,0a34.88,34.88,0,0,0,1.35,10,23,23,0,0,0,3.85,7.61,18.43,18.43,0,0,0,6.25,4.81,19.15,19.15,0,0,0,8.27,1.73,18.93,18.93,0,0,0,8.18-1.73,17.54,17.54,0,0,0,6.16-4.81,22.07,22.07,0,0,0,3.94-7.61,34.88,34.88,0,0,0,1.35-10,33.88,33.88,0,0,0-1.35-9.91,21,21,0,0,0-3.94-7.61,17,17,0,0,0-6.16-4.91,18.93,18.93,0,0,0-8.18-1.73,19.15,19.15,0,0,0-8.27,1.73,17.87,17.87,0,0,0-6.25,4.91,22.91,22.91,0,0,0-3.85,7.61A33.88,33.88,0,0,0,600.85,410.79Z" transform="translate(-323.3 -335)"/><path class="e" d="M706.12,419.07a34.82,34.82,0,0,1-1.54,10.59,24,24,0,0,1-4.23,8.28,19,19,0,0,1-7,5.39,22.11,22.11,0,0,1-9.42,1.92,23.33,23.33,0,0,1-6.55-.87,23.83,23.83,0,0,1-4.9-1.92V462H660.81V395.49c2.37-.65,5.29-1.25,8.75-1.83a66.36,66.36,0,0,1,11-.87,29.39,29.39,0,0,1,10.68,1.83,22.44,22.44,0,0,1,13.08,13.57A30.46,30.46,0,0,1,706.12,419.07Zm-11.93.19q0-7.8-3.56-12.13t-11.26-4.33c-1.09,0-2.24.07-3.46.19a16.68,16.68,0,0,0-3.46.58v28.78a19.16,19.16,0,0,0,4,2,17.14,17.14,0,0,0,5.48.87q6.35,0,9.24-4.33T694.19,419.26Z" transform="translate(-323.3 -335)"/><path class="e" d="M744.28,414.06a14.8,14.8,0,0,0-.67-4.52,10,10,0,0,0-2-3.75,8.09,8.09,0,0,0-3.18-2.51,9.4,9.4,0,0,0-4.42-1,10,10,0,0,0-4.72,1.06,10.73,10.73,0,0,0-3.46,2.6,12.76,12.76,0,0,0-2.12,3.75,20.41,20.41,0,0,0-1.05,4.33Zm-33.77,5.2a32.43,32.43,0,0,1,1.93-11.65,24.57,24.57,0,0,1,5.29-8.27,20.79,20.79,0,0,1,7.5-5,22.8,22.8,0,0,1,8.66-1.73q10.4,0,16.16,6.45t5.87,19.25c0,.64,0,1.38-.09,2.21s0,1.48-.1,2.12H722.54q.48,6.06,4.23,9.43t11.07,3.28a35.7,35.7,0,0,0,7.69-.77,31.69,31.69,0,0,0,5.58-1.64l1.54,9.53a22.51,22.51,0,0,1-2.69,1.06,34.19,34.19,0,0,1-3.85.86,40.41,40.41,0,0,1-4.62.77,42.87,42.87,0,0,1-5.1.29,31.6,31.6,0,0,1-11.54-1.92,22.25,22.25,0,0,1-8.08-5.49,23,23,0,0,1-4.72-8.28A34.4,34.4,0,0,1,710.51,419.26Z" transform="translate(-323.3 -335)"/><path class="e" d="M792.12,404.34a31.73,31.73,0,0,0-4-1,26,26,0,0,0-5.87-.58,23.81,23.81,0,0,0-4.13.39,24.45,24.45,0,0,0-3,.67v40.33H763.45V396.26a59.15,59.15,0,0,1,8.37-2.31,51,51,0,0,1,11.26-1.16,23.64,23.64,0,0,1,2.69.19,26.73,26.73,0,0,1,3.08.39,21.82,21.82,0,0,1,3,.58,19.42,19.42,0,0,1,2.31.57Z" transform="translate(-323.3 -335)"/><path class="e" d="M814.18,392.6A28.55,28.55,0,0,1,823.9,394a15.12,15.12,0,0,1,6.25,4,14.37,14.37,0,0,1,3.37,6.35,28.84,28.84,0,0,1,1.06,8.08V443c-1.8.38-4.52.83-8.18,1.34a77.15,77.15,0,0,1-12.22.87,36.64,36.64,0,0,1-8.27-.87,17.69,17.69,0,0,1-6.45-2.79,13.7,13.7,0,0,1-4.13-5,17.93,17.93,0,0,1-1.45-7.61,15,15,0,0,1,1.64-7.31,13.65,13.65,0,0,1,4.62-4.81,18.29,18.29,0,0,1,6.64-2.7,36,36,0,0,1,8-.87,30.36,30.36,0,0,1,4,.29,32.66,32.66,0,0,1,4.52.77v-1.92a15.1,15.1,0,0,0-.48-3.85,7.38,7.38,0,0,0-1.73-3.18,7.28,7.28,0,0,0-3.17-2.21,13.24,13.24,0,0,0-4.91-.77,44.62,44.62,0,0,0-7.41.57,33.4,33.4,0,0,0-5.48,1.35l-1.45-9.43a46.14,46.14,0,0,1,6.45-1.54A50.84,50.84,0,0,1,814.18,392.6Zm1,43.41a42.76,42.76,0,0,0,8.17-.58v-12.9a22.78,22.78,0,0,0-2.79-.57,25.06,25.06,0,0,0-4-.29,26.7,26.7,0,0,0-3.94.29A12.48,12.48,0,0,0,809,423a6.34,6.34,0,0,0-2.5,2.21,5.82,5.82,0,0,0-1,3.46q0,4.14,2.59,5.78A13.73,13.73,0,0,0,815.15,436Z" transform="translate(-323.3 -335)"/><path class="e" d="M843.45,380.57l11.64-1.93v15.21H873v9.72H855.09v20.5c0,4.05.64,6.93,1.92,8.67s3.46,2.6,6.54,2.6a20.69,20.69,0,0,0,5.58-.68,36.61,36.61,0,0,0,4-1.25l1.92,9.24a38.22,38.22,0,0,1-5.29,1.73,27.11,27.11,0,0,1-7.7,1,24.57,24.57,0,0,1-9-1.45,13.52,13.52,0,0,1-5.68-4.14,17,17,0,0,1-3-6.64,41.76,41.76,0,0,1-.86-8.95Z" transform="translate(-323.3 -335)"/></svg>